<svg width="64" height="64" viewBox="0 0 64 64" xmlns="http://www.w3.org/2000/svg">
  <!-- Темный фон с легким градиентом -->
  <defs>
    <radialGradient id="bgGradient" cx="0.5" cy="0.5" r="0.7">
      <stop offset="0%" stop-color="#101828"></stop>
      <stop offset="100%" stop-color="#0a1324"></stop>
    </radialGradient>

    <!-- Градиент для колеса -->
    <radialGradient id="wheelGradient" cx="0.5" cy="0.5" r="0.6">
      <stop offset="0%" stop-color="#4ea1ff"></stop>
      <stop offset="50%" stop-color="#3470ff"></stop>
      <stop offset="100%" stop-color="#0d2a7a"></stop>
    </radialGradient>

    <!-- Металлический градиент спиц -->
    <linearGradient id="spokeGradient" x1="0" y1="0" x2="1" y2="1">
      <stop offset="0%" stop-color="#cbe1ff"></stop>
      <stop offset="50%" stop-color="#8ab6ff"></stop>
      <stop offset="100%" stop-color="#3f61b5"></stop>
    </linearGradient>

    <!-- Блеск -->
    <radialGradient id="shine" cx="0.3" cy="0.3" r="0.3" fx="0.3" fy="0.3">
      <stop offset="0%" stop-color="white" stop-opacity="0.8"></stop>
      <stop offset="100%" stop-color="white" stop-opacity="0"></stop>
    </radialGradient>
  </defs>

  <!-- Фон -->
  <rect width="64" height="64" rx="14" ry="14" fill="url(#bgGradient)"></rect>

  <!-- Внешнее колесо -->
  <circle cx="32" cy="32" r="26" fill="url(#wheelGradient)" stroke="#3c5fdc" stroke-width="3"></circle>

  <!-- Внутренний диск -->
  <circle cx="32" cy="32" r="16" fill="#0f1a35"></circle>

  <!-- Спицы (8 штук) -->
  <g stroke="url(#spokeGradient)" stroke-width="3" stroke-linecap="round">
    <line x1="32" y1="6" x2="32" y2="26"></line>
    <line x1="32" y1="58" x2="32" y2="38"></line>
    <line x1="6" y1="32" x2="26" y2="32"></line>
    <line x1="58" y1="32" x2="38" y2="32"></line>
    <line x1="16" y1="16" x2="28" y2="28"></line>
    <line x1="48" y1="48" x2="36" y2="36"></line>
    <line x1="16" y1="48" x2="28" y2="36"></line>
    <line x1="48" y1="16" x2="36" y2="28"></line>
  </g>

  <!-- Блеск на колесе -->
  <circle cx="22" cy="22" r="10" fill="url(#shine)"></circle>

  <!-- Динамические линии вокруг для эффекта скорости -->
  <g stroke="#4ea1ff" stroke-width="2" stroke-linecap="round" opacity="0.7">
    <line x1="5" y1="32" x2="14" y2="32"></line>
    <line x1="50" y1="10" x2="60" y2="5"></line>
    <line x1="50" y1="54" x2="60" y2="59"></line>
    <line x1="32" y1="5" x2="32" y2="14"></line>
  </g>

</svg>
